<svg xmlns="http://www.w3.org/2000/svg" xmlns:xlink="http://www.w3.org/1999/xlink" width="500" zoomAndPan="magnify" viewBox="0 0 375 374.999991" height="500" preserveAspectRatio="xMidYMid meet" version="1.0"><path fill="#011f4b" d="M 216.40625 136.71875 L 359.375 136.71875 C 367.96875 136.71875 375 129.6875 375 121.09375 L 375 15.625 C 375 7.03125 367.96875 0 359.375 0 L 216.40625 0 C 207.8125 0 200.78125 7.03125 200.78125 15.625 L 200.78125 121.09375 C 200.78125 129.6875 207.8125 136.71875 216.40625 136.71875 Z M 239.0625 121.09375 L 228.90625 121.09375 C 225 121.09375 221.875 117.96875 221.875 114.0625 C 221.875 110.15625 225 107.03125 228.90625 107.03125 L 239.0625 107.03125 C 242.96875 107.03125 246.09375 110.15625 246.09375 114.0625 C 246.09375 117.96875 242.96875 121.09375 239.0625 121.09375 Z M 346.875 121.09375 L 336.71875 121.09375 C 332.8125 121.09375 329.6875 117.96875 329.6875 114.0625 C 329.6875 110.15625 332.8125 107.03125 336.71875 107.03125 L 346.875 107.03125 C 350.78125 107.03125 353.90625 110.15625 353.90625 114.0625 C 353.90625 117.96875 350.78125 121.09375 346.875 121.09375 Z M 217.96875 16.40625 L 237.5 16.40625 L 237.5 42.96875 L 244.53125 42.96875 L 244.53125 16.40625 L 256.25 16.40625 L 256.25 42.96875 L 263.28125 42.96875 L 263.28125 16.40625 L 275 16.40625 L 275 42.96875 L 282.03125 42.96875 L 282.03125 16.40625 L 293.75 16.40625 L 293.75 42.96875 L 300.78125 42.96875 L 300.78125 16.40625 L 312.5 16.40625 L 312.5 42.96875 L 319.53125 42.96875 L 319.53125 16.40625 L 331.25 16.40625 L 331.25 42.96875 L 338.28125 42.96875 L 338.28125 16.40625 L 357.8125 16.40625 L 357.8125 99.21875 L 319.53125 99.21875 L 319.53125 121.875 L 256.25 121.875 L 256.25 99.21875 L 217.96875 99.21875 Z M 217.96875 16.40625 " fill-opacity="1" fill-rule="nonzero"/><path fill="#011f4b" d="M 96.09375 188.28125 L 96.09375 200 L 60.15625 200 L 62.5 210.9375 L 96.09375 210.9375 L 96.09375 222.65625 L 65.625 222.65625 L 68.75 233.59375 L 96.09375 233.59375 L 96.09375 245.3125 L 71.875 245.3125 L 84.375 267.96875 C 86.71875 271.875 90.625 274.21875 94.53125 274.21875 L 146.09375 274.21875 C 150 274.21875 153.90625 271.875 156.25 267.96875 L 168.75 245.3125 L 144.53125 245.3125 L 144.53125 233.59375 L 171.875 233.59375 L 175 222.65625 L 144.53125 222.65625 L 144.53125 210.9375 L 178.125 210.9375 L 181.25 200 L 145.3125 200 L 145.3125 188.28125 L 184.375 188.28125 L 188.28125 174.21875 L 188.28125 168.75 C 188.28125 162.5 182.8125 157.03125 176.5625 157.03125 L 65.625 157.03125 C 59.375 157.03125 53.90625 162.5 53.90625 168.75 L 53.90625 174.21875 L 57.8125 188.28125 Z M 96.09375 188.28125 " fill-opacity="1" fill-rule="nonzero"/><path fill="#011f4b" d="M 171.875 70.3125 C 171.875 66.40625 168.75 62.5 164.0625 62.5 L 164.0625 104.6875 L 76.5625 104.6875 L 76.5625 62.5 C 72.65625 62.5 68.75 66.40625 68.75 70.3125 L 68.75 149.21875 L 171.875 149.21875 Z M 171.875 70.3125 " fill-opacity="1" fill-rule="nonzero"/><path fill="#011f4b" d="M 83.59375 62.5 L 92.1875 62.5 L 92.1875 94.53125 L 83.59375 94.53125 Z M 83.59375 62.5 " fill-opacity="1" fill-rule="nonzero"/><path fill="#011f4b" d="M 100 62.5 L 108.59375 62.5 L 108.59375 94.53125 L 100 94.53125 Z M 100 62.5 " fill-opacity="1" fill-rule="nonzero"/><path fill="#011f4b" d="M 115.625 62.5 L 124.21875 62.5 L 124.21875 94.53125 L 115.625 94.53125 Z M 115.625 62.5 " fill-opacity="1" fill-rule="nonzero"/><path fill="#011f4b" d="M 132.03125 62.5 L 140.625 62.5 L 140.625 94.53125 L 132.03125 94.53125 Z M 132.03125 62.5 " fill-opacity="1" fill-rule="nonzero"/><path fill="#011f4b" d="M 148.4375 62.5 L 157.03125 62.5 L 157.03125 94.53125 L 148.4375 94.53125 Z M 148.4375 62.5 " fill-opacity="1" fill-rule="nonzero"/><path fill="#011f4b" d="M 335.9375 296.09375 L 150 296.09375 C 140.625 296.09375 132.8125 289.84375 130.46875 281.25 L 110.9375 281.25 C 114.0625 300 129.6875 314.84375 150 314.84375 L 335.9375 314.84375 C 346.875 314.84375 356.25 324.21875 356.25 335.15625 C 356.25 346.09375 346.875 355.46875 335.9375 355.46875 L 0 355.46875 L 0 375 L 335.9375 375 C 357.8125 375 375 357.03125 375 335.9375 C 375 314.0625 357.8125 296.09375 335.9375 296.09375 Z M 335.9375 296.09375 " fill-opacity="1" fill-rule="nonzero"/></svg>