<svg xmlns="http://www.w3.org/2000/svg" xmlns:xlink="http://www.w3.org/1999/xlink" width="500" zoomAndPan="magnify" viewBox="0 0 375 374.999991" height="500" preserveAspectRatio="xMidYMid meet" version="1.0"><defs><clipPath id="8d7424cd13"><path d="M 3 6 L 373.5 6 L 373.5 375 L 3 375 Z M 3 6 " clip-rule="nonzero"/></clipPath></defs><g clip-path="url(#8d7424cd13)"><path fill="#011f4b" d="M 3.742188 184.039062 C 7.289062 90.128906 82.863281 12.523438 176.65625 6.6875 C 284.121094 -0.00390625 373.367188 85.175781 373.367188 191.199219 C 373.367188 284.71875 303.914062 361.96875 213.78125 374.304688 C 208.574219 375.019531 203.894531 371.074219 203.894531 365.820312 L 203.894531 274.394531 L 207.660156 274.394531 C 239.617188 274.394531 265.519531 248.488281 265.519531 216.535156 L 265.519531 167.757812 C 265.519531 165.386719 267.441406 163.464844 269.8125 163.464844 C 274.25 163.464844 277.84375 159.871094 277.84375 155.429688 L 277.84375 140.6875 C 277.84375 136.25 274.25 132.652344 269.8125 132.652344 L 253.195312 132.652344 L 253.195312 49.457031 C 253.195312 40.429688 245.390625 33.191406 236.175781 34.132812 C 228.160156 34.949219 222.382812 42.308594 222.382812 50.367188 L 222.382812 132.652344 L 154.589844 132.652344 L 154.589844 49.457031 C 154.589844 40.429688 146.789062 33.191406 137.574219 34.132812 C 129.558594 34.949219 123.777344 42.308594 123.777344 50.367188 L 123.777344 132.652344 L 107.164062 132.652344 C 102.726562 132.652344 99.128906 136.25 99.128906 140.6875 L 99.128906 155.433594 C 99.128906 159.867188 102.722656 163.464844 107.164062 163.464844 C 109.53125 163.464844 111.453125 165.386719 111.453125 167.757812 L 111.453125 216.535156 C 111.453125 248.488281 137.355469 274.394531 169.3125 274.394531 L 173.078125 274.394531 L 173.078125 365.816406 C 173.078125 371.0625 168.410156 375.019531 163.210938 374.308594 C 70.777344 361.667969 0.0898438 280.757812 3.742188 184.039062 Z M 173.851562 255.554688 C 174.304688 255.792969 174.792969 255.90625 175.277344 255.90625 C 176.222656 255.90625 177.144531 255.472656 177.746094 254.671875 L 209.441406 212.414062 C 210.140625 211.480469 210.253906 210.234375 209.730469 209.1875 C 209.207031 208.144531 208.144531 207.484375 206.976562 207.484375 L 194.765625 207.484375 L 199.449219 179.378906 C 199.691406 177.929688 198.875 176.507812 197.503906 175.988281 C 196.128906 175.472656 194.578125 176 193.796875 177.238281 L 167.386719 219.496094 C 166.792969 220.445312 166.761719 221.644531 167.304688 222.621094 C 167.847656 223.601562 168.878906 224.210938 170 224.210938 L 181.570312 224.210938 L 172.359375 251.847656 C 171.878906 253.285156 172.511719 254.851562 173.851562 255.554688 Z M 173.851562 255.554688 " fill-opacity="1" fill-rule="nonzero"/></g></svg>