<svg xmlns="http://www.w3.org/2000/svg" xmlns:xlink="http://www.w3.org/1999/xlink" width="500" zoomAndPan="magnify" viewBox="0 0 375 374.999991" height="500" preserveAspectRatio="xMidYMid meet" version="1.0"><path fill="#011f4b" d="M 248.382812 114.375 L 247.78125 113.9375 C 241.582031 109.808594 233.660156 111.175781 229.746094 117.039062 C 227.707031 120.097656 226.925781 123.824219 227.613281 127.261719 C 228.234375 130.378906 229.996094 133.078125 232.582031 134.898438 C 250.34375 148.28125 260.941406 169.757812 260.941406 192.382812 C 260.941406 232.507812 228.277344 265.152344 188.128906 265.152344 C 147.984375 265.152344 115.316406 232.507812 115.316406 192.382812 C 115.316406 169.21875 125.394531 148.808594 143.703125 134.878906 C 146.695312 132.757812 148.566406 129.449219 148.851562 125.746094 C 149.082031 122.742188 148.253906 119.648438 146.515625 117.042969 C 142.597656 111.171875 134.671875 109.808594 128.476562 113.9375 L 128.070312 114.226562 C 103.425781 132.703125 89.289062 161.191406 89.289062 192.382812 C 89.289062 246.515625 133.347656 290.554688 187.5 290.554688 C 241.65625 290.554688 285.714844 246.515625 285.714844 192.382812 C 285.714844 161.640625 272.109375 133.207031 248.382812 114.375 Z M 248.382812 114.375 " fill-opacity="1" fill-rule="nonzero"/><path fill="#011f4b" d="M 187.5 204.457031 C 194.265625 204.457031 200.203125 198.519531 200.203125 191.753906 L 200.203125 85.546875 C 200.203125 78.78125 194.265625 72.847656 187.5 72.847656 C 180.734375 72.847656 174.796875 78.78125 174.796875 85.546875 L 174.796875 192.382812 C 174.796875 199.039062 180.496094 204.457031 187.5 204.457031 Z M 187.5 204.457031 " fill-opacity="1" fill-rule="nonzero"/><path fill="#011f4b" d="M 187.5 0 C 84.113281 0 0 84.113281 0 187.5 C 0 290.886719 84.113281 375 187.5 375 C 290.886719 375 375 290.886719 375 187.5 C 375 84.113281 290.886719 0 187.5 0 Z M 187.5 350.851562 C 97.425781 350.851562 24.148438 277.574219 24.148438 187.5 C 24.148438 97.425781 97.425781 24.148438 187.5 24.148438 C 277.574219 24.148438 350.851562 97.425781 350.851562 187.546875 C 351.074219 230.980469 334.316406 271.863281 303.671875 302.664062 C 272.757812 333.738281 231.496094 350.851562 187.5 350.851562 Z M 187.5 350.851562 " fill-opacity="1" fill-rule="nonzero"/></svg>